<?xml version="1.0" encoding="UTF-8"?>
<!DOCTYPE svg PUBLIC "-//W3C//DTD SVG 1.1//EN" "http://www.w3.org/Graphics/SVG/1.1/DTD/svg11.dtd">
<!-- Creator: CorelDRAW 2018 (64 Bit Versão de avaliação) -->
<svg xmlns="http://www.w3.org/2000/svg" xml:space="preserve" width="21.1662mm" height="23.8124mm" version="1.1" style="shape-rendering:geometricPrecision; text-rendering:geometricPrecision; image-rendering:optimizeQuality; fill-rule:evenodd; clip-rule:evenodd"
viewBox="0 0 2116.62 2381.24"
 xmlns:xlink="http://www.w3.org/1999/xlink"
 enable-background="new 0 0 24 24">
 <defs>
  <style type="text/css">
   <![CDATA[
    .fil0 {fill:black}
   ]]>
  </style>
 </defs>
 <g id="Camada_x0020_1">
  <metadata id="CorelCorpID_0Corel-Layer"/>
  <g id="_1719857185200">
   <g>
    <g>
     <path class="fil0" d="M1960.16 1741.45c-14.71,0 -28.56,-8.26 -35.36,-21.85 -2.27,-4.4 -183.46,-340.35 -939.57,-351.78l0 334.1c0,15.06 -8.57,28.8 -22.06,35.44 -13.47,6.64 -29.53,5.1 -41.53,-4.05l-828.48 -634.91c-9.77,-7.49 -15.54,-19.08 -15.54,-31.35 0,-12.33 5.77,-23.91 15.54,-31.42l828.52 -634.89c12.02,-9.17 28.06,-10.72 41.53,-4.11 13.49,6.6 22.06,20.4 22.06,35.41l0 352.1c20,-1.27 46.05,-2.38 76.8,-2.38 281.93,0 937.65,89.69 937.65,920.08 0,18.37 -12.62,34.35 -30.53,38.52 -3.02,0.78 -5.99,1.09 -9.03,1.09z"/>
    </g>
   </g>
   <g>
   </g>
   <g>
   </g>
   <g>
   </g>
   <g>
   </g>
   <g>
   </g>
   <g>
   </g>
   <g>
   </g>
   <g>
   </g>
   <g>
   </g>
   <g>
   </g>
   <g>
   </g>
   <g>
   </g>
   <g>
   </g>
   <g>
   </g>
   <g>
   </g>
  </g>
 </g>
</svg>
