<?xml version="1.0" encoding="UTF-8"?>
<!DOCTYPE svg PUBLIC "-//W3C//DTD SVG 1.1//EN" "http://www.w3.org/Graphics/SVG/1.1/DTD/svg11.dtd">
<!-- Creator: CorelDRAW 2018 (64 Bit Versão de avaliação) -->
<svg xmlns="http://www.w3.org/2000/svg" xml:space="preserve" width="21.1662mm" height="23.8124mm" version="1.1" style="shape-rendering:geometricPrecision; text-rendering:geometricPrecision; image-rendering:optimizeQuality; fill-rule:evenodd; clip-rule:evenodd"
viewBox="0 0 2116.62 2381.24"
 xmlns:xlink="http://www.w3.org/1999/xlink"
 enable-background="new 0 0 24 24">
 <defs>
  <style type="text/css">
   <![CDATA[
    .fil1 {fill:#607D8B}
    .fil0 {fill:url(#id0)}
   ]]>
  </style>
  <linearGradient id="id0" gradientUnits="userSpaceOnUse" x1="291.94" y1="1070.58" x2="1847.84" y2="825.62">
   <stop offset="0" style="stop-opacity:1; stop-color:#FFC107"/>
   <stop offset="1" style="stop-opacity:1; stop-color:#F0F279"/>
  </linearGradient>
 </defs>
 <g id="Camada_x0020_1">
  <metadata id="CorelCorpID_0Corel-Layer"/>
  <g id="_1719857240880">
   <path class="fil0" d="M1848.02 891.04c-4.91,214.56 -119.32,415.04 -311.89,551.4 -78.59,54.97 -130.66,126.31 -148.09,202.07 -2.26,-0.95 -3.37,-0.98 -5.6,-0.88l-672.9 11.33c-2.2,0.05 -5.55,0.12 -7.79,1.13 -13.97,-78.18 -58.36,-145.92 -123.55,-188.52 -240.75,-159.8 -349.02,-426.04 -280.07,-697.29 67.69,-264.28 313.75,-482.93 612.17,-542.54 237.63,-48.74 478.69,-1.2 659.57,127.83 182.03,129.95 282.97,324.83 278.15,535.47l0 0z"/>
   <path class="fil1" d="M1388.04 1644.51c-3.75,16.92 -6.4,33.88 -6.79,51.78l-5.02 220.49c-2.18,95.36 -92.57,175.34 -200.28,177.16l-280.34 4.75c-94.16,1.6 -194.81,-60.28 -191.6,-199.35l4 -175.78c0.55,-22.89 -1.23,-45.66 -6.26,-67.47 2.24,-1.01 5.59,-1.08 7.79,-1.13l672.9 -11.33c2.23,-0.1 3.34,-0.07 5.6,0.88l0 0z"/>
  </g>
 </g>
</svg>
