<?xml version="1.0" encoding="UTF-8"?>
<!DOCTYPE svg PUBLIC "-//W3C//DTD SVG 1.1//EN" "http://www.w3.org/Graphics/SVG/1.1/DTD/svg11.dtd">
<!-- Creator: CorelDRAW 2018 (64 Bit Versão de avaliação) -->
<svg xmlns="http://www.w3.org/2000/svg" xml:space="preserve" width="19.8394mm" height="18.5206mm" version="1.1" style="shape-rendering:geometricPrecision; text-rendering:geometricPrecision; image-rendering:optimizeQuality; fill-rule:evenodd; clip-rule:evenodd"
viewBox="0 0 1983.94 1852.06"
 xmlns:xlink="http://www.w3.org/1999/xlink"
 enable-background="new 0 0 24 24">
 <defs>
  <style type="text/css">
   <![CDATA[
    .fil4 {fill:#607D8B}
    .fil1 {fill:#BBC6D4}
    .fil0 {fill:#CDD2DF}
    .fil2 {fill:#E4E9F4}
    .fil3 {fill:#FFC107}
   ]]>
  </style>
 </defs>
 <g id="Camada_x0020_1">
  <metadata id="CorelCorpID_0Corel-Layer"/>
  <path class="fil0" d="M1158.43 1807.3l-838.46 -249.45c-73.39,-21.84 -112.79,-91.91 -87.98,-156.52l475.94 -1239.52c24.81,-64.6 104.42,-99.28 177.81,-77.44l838.48 249.46c73.39,21.84 112.78,91.9 87.97,156.52l-475.95 1239.52c-24.81,64.6 -104.42,99.26 -177.81,77.43z"/>
  <path class="fil1" d="M1706.8 375.88c3.23,-16.05 3.14,-31.96 0.2,-47.18l-653.97 -194.56 -275.47 -42.97c-31.68,14.09 -57.35,38.69 -69.63,70.64l-475.94 1239.52c-24.81,64.6 14.57,134.68 87.98,156.52l838.46 249.45c73.39,21.84 153,-12.83 177.81,-77.44l205.94 -536.33 164.62 -817.65 0 0z"/>
  <path class="fil2" d="M1182.15 1813.22l-871.47 -135.96c-76.28,-11.89 -127.17,-75.98 -113.65,-143.13l259.39 -1288.32c13.53,-67.15 86.32,-111.93 162.6,-100.04l871.49 135.96c76.29,11.9 127.17,75.98 113.64,143.12l-259.39 1288.34c-13.52,67.14 -86.32,111.93 -162.61,100.03z"/>
  <path class="fil3" d="M1103.28 910.47c-7.72,42.66 -36.85,79.07 -79.56,100.23 -17.41,8.5 -30.04,21.1 -35.9,35.67 -0.42,-0.26 -0.64,-0.3 -1.09,-0.35l-134.63 -18.88c-0.44,-0.06 -1.11,-0.15 -1.59,-0.02 -0.33,-16.04 -7.06,-30.95 -18.73,-41.5 -43.02,-39.45 -56.26,-95.98 -33.98,-147.94 21.81,-50.61 77.78,-86.51 139.2,-89.03 48.95,-2.26 95.56,14.8 127.6,46.23 32.24,31.65 46.26,73.71 38.68,115.59l0 0z"/>
  <path class="fil4" d="M987.82 1046.37c-1.28,3.26 -2.34,6.56 -2.98,10.12l-7.93 43.84c-3.43,18.96 -23.98,32.08 -45.53,29.06l-56.09 -7.86c-18.84,-2.64 -36.98,-18.15 -31.97,-45.8l6.32 -34.95c0.83,-4.55 1.19,-9.15 0.87,-13.66 0.48,-0.13 1.15,-0.04 1.59,0.02l134.63 18.88c0.45,0.05 0.67,0.09 1.09,0.35l0 0z"/>
 </g>
</svg>
