<?xml version="1.0" encoding="UTF-8"?>
<!DOCTYPE svg PUBLIC "-//W3C//DTD SVG 1.1//EN" "http://www.w3.org/Graphics/SVG/1.1/DTD/svg11.dtd">
<!-- Creator: CorelDRAW 2018 (64 Bit Versão de avaliação) -->
<svg xmlns="http://www.w3.org/2000/svg" xml:space="preserve" width="21.1662mm" height="23.8124mm" version="1.1" style="shape-rendering:geometricPrecision; text-rendering:geometricPrecision; image-rendering:optimizeQuality; fill-rule:evenodd; clip-rule:evenodd"
viewBox="0 0 2116.62 2381.24"
 xmlns:xlink="http://www.w3.org/1999/xlink"
 enable-background="new 0 0 24 24">
 <defs>
  <style type="text/css">
   <![CDATA[
    .fil4 {fill:#607D8B}
    .fil1 {fill:#FFD342}
    .fil0 {fill:#FFDC68}
    .fil2 {fill:#FFF6D9}
    .fil3 {fill:url(#id0)}
   ]]>
  </style>
  <linearGradient id="id0" gradientUnits="userSpaceOnUse" x1="762.28" y1="924.29" x2="1821.56" y2="757.52">
   <stop offset="0" style="stop-opacity:1; stop-color:#FFC107"/>
   <stop offset="1" style="stop-opacity:1; stop-color:#F0F279"/>
  </linearGradient>
 </defs>
 <g id="Camada_x0020_1">
  <metadata id="CorelCorpID_0Corel-Layer"/>
  <path class="fil0" d="M320.44 352.6l1119.36 0c103.03,0 186.55,83.53 186.55,186.56l0 1585.75c0,103.04 -83.52,186.56 -186.55,186.56l-1119.36 0c-103.03,0 -186.56,-83.52 -186.56,-186.56l0 -1585.75c0,-103.03 83.53,-186.56 186.56,-186.56zm0 0z"/>
  <path class="fil1" d="M1439.79 352.6l-1026.07 0 0 1399.2c0,154.55 125.28,279.84 279.84,279.84l932.8 0 0 -1492.48c-0.01,-103.03 -83.53,-186.56 -186.57,-186.56zm0 0z"/>
  <path class="fil2" d="M693.56 72.76l1119.36 0c103.03,0 186.56,83.53 186.56,186.55l0 1492.49c0,103.03 -83.53,186.55 -186.56,186.55l-1119.36 0c-103.04,0 -186.56,-83.53 -186.56,-186.55l0 -1492.49c0,-103.02 83.52,-186.55 186.56,-186.55l0 0zm0 0z"/>
  <path class="fil3" d="M1821.68 802.06c-3.34,146.07 -81.24,282.56 -212.34,375.4 -53.51,37.42 -88.95,85.99 -100.82,137.57 -1.54,-0.64 -2.29,-0.66 -3.82,-0.59l-458.12 7.71c-1.49,0.03 -3.77,0.08 -5.3,0.77 -9.51,-53.23 -39.73,-99.34 -84.11,-128.35 -163.91,-108.79 -237.62,-290.06 -190.68,-474.73 46.08,-179.93 213.61,-328.79 416.77,-369.37 161.79,-33.18 325.91,-0.82 449.05,87.03 123.93,88.47 192.65,221.15 189.37,364.56l0 0z"/>
  <path class="fil4" d="M1508.52 1315.03c-2.56,11.53 -4.36,23.07 -4.62,35.26l-3.42 150.11c-1.48,64.92 -63.02,119.37 -136.35,120.61l-190.86 3.24c-64.11,1.08 -132.64,-41.05 -130.45,-135.73l2.72 -119.67c0.38,-15.58 -0.83,-31.09 -4.26,-45.93 1.53,-0.69 3.81,-0.74 5.3,-0.77l458.12 -7.71c1.53,-0.07 2.28,-0.05 3.82,0.59l0 0z"/>
 </g>
</svg>
